<svg xmlns="http://www.w3.org/2000/svg" viewBox="0 0 960 320" fill="none" role="img" aria-labelledby="title desc">
  <title id="title">Everbranch Logo</title>
  <desc id="desc">Everbranch wordmark with a circuit-tree mark.</desc>
  <g transform="translate(408 22)">
    <g stroke="#050505" stroke-width="7" stroke-linecap="round" stroke-linejoin="round">
      <path d="M72 150V78" />
      <path d="M48 150V118L25 95" />
      <path d="M96 150V118L119 95" />
      <path d="M56 97L42 83" />
      <path d="M88 97L102 83" />
      <path d="M50 150H94" />
    </g>
    <g fill="#050505">
      <circle cx="72" cy="72" r="10" />
      <circle cx="25" cy="95" r="10" />
      <circle cx="119" cy="95" r="10" />
      <circle cx="42" cy="83" r="7" />
      <circle cx="102" cy="83" r="7" />
      <circle cx="72" cy="41" r="7" />
      <circle cx="47" cy="51" r="7" />
      <circle cx="97" cy="51" r="7" />
      <circle cx="32" cy="117" r="6" />
      <circle cx="112" cy="117" r="6" />
      <circle cx="18" cy="74" r="5.5" />
      <circle cx="126" cy="74" r="5.5" />
      <circle cx="18" cy="119" r="5.5" />
      <circle cx="126" cy="119" r="5.5" />
    </g>
  </g>
  <text x="480" y="262" text-anchor="middle" fill="#050505" font-size="108" font-family="Inter, Avenir Next, Helvetica Neue, Arial, sans-serif" font-weight="300" letter-spacing="12">ever branch</text>
</svg>
