<svg xmlns="http://www.w3.org/2000/svg" viewBox="0 0 760 260" role="img" aria-labelledby="title desc">
  <title id="title">Evergrove Software</title>
  <desc id="desc">Evergrove Software wordmark with leaf accents.</desc>
  <rect width="760" height="260" fill="none"/>
  <g fill="none" stroke="#050505" stroke-width="7" stroke-linecap="round" stroke-linejoin="round">
    <path d="M172 63c-31-9-55-1-72 23 25 24 51 27 79 11"/>
    <path d="M182 104c-15-28-13-55 7-82 28 18 38 43 29 75"/>
    <path d="M168 65c17 13 30 29 39 48"/>
    <path d="M574 63c-31-9-55-1-72 23 25 24 51 27 79 11"/>
    <path d="M584 104c-15-28-13-55 7-82 28 18 38 43 29 75"/>
    <path d="M570 65c17 13 30 29 39 48"/>
  </g>
  <text x="380" y="157" text-anchor="middle" fill="#050505" font-family="Georgia, 'Times New Roman', serif" font-size="118" font-weight="500">evergrove</text>
  <path d="M78 181c150 14 449 14 604 0" fill="none" stroke="#050505" stroke-width="4" stroke-linecap="round"/>
  <text x="380" y="231" text-anchor="middle" fill="#050505" font-family="Inter, Arial, sans-serif" font-size="34" font-weight="500" letter-spacing="18">SOFTWARE</text>
</svg>
