<svg xmlns="http://www.w3.org/2000/svg" width="1024" height="1024" viewBox="0 0 1024 1024" version="1.1"><path d="" stroke="none" fill="#000000" fill-rule="evenodd"/><path d="M 510.447 210.199 C 507.090 220.378, 497.809 241.401, 488.514 259.880 C 461.831 312.928, 428.015 355.620, 396.862 375.589 C 393.038 378.039, 390.126 380.396, 390.391 380.824 C 390.852 381.570, 395.631 381.230, 438.291 377.425 C 448.626 376.503, 457.399 376.065, 457.786 376.453 C 459.671 378.337, 441.766 408.021, 426.996 427.500 C 413.578 445.195, 388.642 470.386, 370.773 484.295 C 355.692 496.036, 336.679 508, 333.105 508 C 332.497 508, 332 508.872, 332 509.937 C 332 511.547, 332.549 511.799, 335.250 511.430 C 337.037 511.185, 349.075 510.301, 362 509.465 C 385.478 507.947, 399.528 506.825, 412.250 505.452 C 418.488 504.779, 419 504.869, 419 506.640 C 419 509.386, 412.432 521.845, 404.565 534.018 C 384.502 565.069, 361.472 588.785, 333 607.718 C 315.633 619.266, 289.558 632.057, 276.390 635.487 C 270.967 636.899, 268.072 638.436, 269.067 639.376 C 269.305 639.601, 278.050 641.208, 288.500 642.947 C 310.277 646.571, 346.426 653.340, 356 655.587 C 411.575 668.629, 438.796 680.380, 456.219 698.849 C 459.820 702.667, 464.057 708.087, 465.633 710.894 C 467.210 713.701, 469.110 715.998, 469.856 715.999 C 470.601 716, 472.587 714.842, 474.269 713.427 C 480.377 708.288, 505 697.059, 526 689.836 C 547.763 682.351, 582.003 673.246, 615.500 666.036 C 656.980 657.109, 727.709 644.021, 748.096 641.500 C 754.399 640.721, 757.015 639.555, 755.492 638.204 C 754.946 637.720, 750.675 636.071, 746 634.539 C 735.134 630.979, 711.114 619.105, 699.500 611.553 C 677.330 597.137, 654.768 576.977, 639.565 558 C 626.523 541.721, 608 511.542, 608 506.573 C 608 504.650, 610.197 504.693, 631 507.029 C 635.675 507.554, 650.975 508.666, 665 509.500 C 679.025 510.333, 691.737 511.226, 693.250 511.483 C 695.369 511.843, 695.999 511.554, 695.996 510.225 C 695.994 509.116, 693.688 507.308, 689.543 505.165 C 669.877 494.996, 648.607 478.507, 626.525 456.311 C 604.769 434.443, 589.792 414.981, 574.608 388.849 C 567.131 375.982, 567.174 375.522, 575.750 376.409 C 595.888 378.494, 626.285 380.926, 632.750 380.971 C 638.939 381.013, 638.204 378.846, 630.587 374.586 C 614.200 365.422, 592.086 343.375, 573.326 317.500 C 555.002 292.226, 531.330 248.718, 519.550 218.660 C 516.746 211.505, 513.943 205.481, 513.323 205.274 C 512.702 205.067, 511.408 207.284, 510.447 210.199" stroke="none" fill="#1e7145" fill-rule="evenodd"/></svg>