<svg xmlns="http://www.w3.org/2000/svg" viewBox="0 0 850 1100" role="img" aria-labelledby="title"><title id="title">Collins Upstate Electric editable service flyer</title>
  <rect width="850" height="1100" fill="#F8FBFF"/><rect width="850" height="260" fill="#061D42"/><path d="M0 220c250-88 549-58 850 19v21H0v-40Z" fill="#1464E8" opacity=".72"/>
  <g transform="translate(54 48)" fill="none" stroke="#fff" stroke-linejoin="round"><path d="M4 112 47 47l18 23 27-43 58 85H4Z" stroke-width="8"/><path d="m84 28-15 44h19l-12 34 34-48H90l13-30H84Z" fill="#45A0FF" stroke-width="2"/></g><text x="226" y="112" fill="#fff" font-family="Arial,Helvetica,sans-serif" font-size="45" font-weight="800" letter-spacing="6">COLLINS</text><text x="228" y="151" fill="#A8CDFF" font-family="Arial,Helvetica,sans-serif" font-size="18" font-weight="800" letter-spacing="8">UPSTATE ELECTRIC</text>
  <text x="54" y="360" fill="#061D42" font-family="Arial,Helvetica,sans-serif" font-size="54" font-weight="800">COMPLETE ELECTRICAL</text><text x="54" y="418" fill="#1464E8" font-family="Arial,Helvetica,sans-serif" font-size="54" font-weight="800">SOLUTIONS</text><text x="54" y="480" fill="#53647C" font-family="Arial,Helvetica,sans-serif" font-size="22">{{INTRO_COPY}}</text>
  <g font-family="Arial,Helvetica,sans-serif"><text x="86" y="590" fill="#061D42" font-size="28" font-weight="800">01  SERVICE &amp; REPAIRS</text><text x="86" y="648" fill="#061D42" font-size="28" font-weight="800">02  PANEL UPGRADES</text><text x="86" y="706" fill="#061D42" font-size="28" font-weight="800">03  NEW CONSTRUCTION</text><text x="86" y="764" fill="#061D42" font-size="28" font-weight="800">04  LIGHTING SOLUTIONS</text></g>
  <rect x="54" y="870" width="742" height="150" rx="24" fill="#061D42"/><text x="90" y="935" fill="#fff" font-family="Arial,Helvetica,sans-serif" font-size="35" font-weight="800">{{PHONE}}</text><text x="90" y="979" fill="#A8CDFF" font-family="Arial,Helvetica,sans-serif" font-size="20" font-weight="700">{{WEBSITE}}  ·  {{EMAIL}}</text>
</svg>
