<svg xmlns="http://www.w3.org/2000/svg" viewBox="0 0 1080 1920" role="img" aria-labelledby="title"><title id="title">Collins Upstate Electric editable social story</title>
  <defs><linearGradient id="g" x1="0" y1="0" x2="0" y2="1"><stop stop-color="#061D42"/><stop offset=".55" stop-color="#0B326D"/><stop offset="1" stop-color="#031026"/></linearGradient></defs><rect width="1080" height="1920" fill="url(#g)"/>
  <circle cx="940" cy="280" r="270" fill="#1464E8" opacity=".18"/><path d="M0 1550c212-148 371-190 556-106 177 81 330 16 524-111v587H0v-370Z" fill="#020C1E"/>
  <g transform="translate(74 84)" fill="none" stroke="#fff" stroke-linejoin="round"><path d="M4 112 47 47l18 23 27-43 58 85H4Z" stroke-width="8"/><path d="m84 28-15 44h19l-12 34 34-48H90l13-30H84Z" fill="#45A0FF" stroke-width="2"/></g><text x="250" y="144" fill="#fff" font-family="Arial,Helvetica,sans-serif" font-size="48" font-weight="800" letter-spacing="6">COLLINS</text><text x="252" y="182" fill="#A8CDFF" font-family="Arial,Helvetica,sans-serif" font-size="18" font-weight="800" letter-spacing="8">UPSTATE ELECTRIC</text>
  <text x="74" y="760" fill="#fff" font-family="Arial,Helvetica,sans-serif" font-size="110" font-weight="800">{{HEADLINE}}</text><text x="74" y="850" fill="#C7DCFB" font-family="Arial,Helvetica,sans-serif" font-size="35">{{SUPPORTING_COPY}}</text>
  <rect x="74" y="1000" width="556" height="92" rx="46" fill="#1464E8"/><text x="126" y="1060" fill="#fff" font-family="Arial,Helvetica,sans-serif" font-size="31" font-weight="800">{{CALL_TO_ACTION}}</text><text x="76" y="1806" fill="#B8D4FF" font-family="Arial,Helvetica,sans-serif" font-size="23" font-weight="700" letter-spacing="2">{{PHONE}}  ·  {{WEBSITE}}</text>
</svg>
