<svg xmlns="http://www.w3.org/2000/svg" viewBox="0 0 1080 1080" role="img" aria-labelledby="title"><title id="title">Collins Upstate Electric editable square social post</title>
  <defs><linearGradient id="g" x1="0" y1="0" x2="1" y2="1"><stop stop-color="#051935"/><stop offset="1" stop-color="#1464E8"/></linearGradient></defs><rect width="1080" height="1080" fill="url(#g)"/>
  <path d="M0 815c212-158 393-212 548-123 144 83 307 29 532-124v512H0V815Z" fill="#04142D" opacity=".87"/>
  <g transform="translate(74 76)" fill="none" stroke="#fff" stroke-linejoin="round"><path d="M4 112 47 47l18 23 27-43 58 85H4Z" stroke-width="8"/><path d="m84 28-15 44h19l-12 34 34-48H90l13-30H84Z" fill="#45A0FF" stroke-width="2"/></g><text x="250" y="136" fill="#fff" font-family="Arial,Helvetica,sans-serif" font-size="48" font-weight="800" letter-spacing="6">COLLINS</text><text x="252" y="174" fill="#A8CDFF" font-family="Arial,Helvetica,sans-serif" font-size="18" font-weight="800" letter-spacing="8">UPSTATE ELECTRIC</text>
  <text x="74" y="500" fill="#fff" font-family="Arial,Helvetica,sans-serif" font-size="88" font-weight="800">POWER YOU</text><text x="74" y="594" fill="#fff" font-family="Arial,Helvetica,sans-serif" font-size="88" font-weight="800">CAN COUNT ON.</text>
  <rect x="74" y="662" width="410" height="76" rx="38" fill="#fff"/><text x="112" y="712" fill="#061D42" font-family="Arial,Helvetica,sans-serif" font-size="28" font-weight="800">{{CALL_TO_ACTION}}</text><text x="76" y="997" fill="#B8D4FF" font-family="Arial,Helvetica,sans-serif" font-size="22" font-weight="700" letter-spacing="2">{{PHONE}}  ·  {{WEBSITE}}</text>
</svg>
