<svg xmlns="http://www.w3.org/2000/svg" viewBox="0 0 1400 800" role="img" aria-labelledby="title"><title id="title">Collins Upstate Electric vehicle decals reference</title>
  <rect width="1400" height="800" fill="#F3F7FC"/><text x="70" y="82" fill="#061D42" font-family="Arial,Helvetica,sans-serif" font-size="32" font-weight="800" letter-spacing="3">VEHICLE DECALS · PRODUCTION REFERENCE</text><text x="70" y="122" fill="#53647C" font-family="Arial,Helvetica,sans-serif" font-size="19">Replace all {{TOKENS}} before fabrication. Keep 1.5 in clearance from panel breaks and handles.</text>
  <g transform="translate(80 210)"><path d="M110 250h840l108-165h148l70 165h44c26 0 47 21 47 47v48h-1307v-51c0-24 20-44 44-44h46Z" fill="#fff" stroke="#061D42" stroke-width="10" stroke-linejoin="round"/><circle cx="300" cy="350" r="72" fill="#061D42"/><circle cx="300" cy="350" r="31" fill="#F3F7FC"/><circle cx="1040" cy="350" r="72" fill="#061D42"/><circle cx="1040" cy="350" r="31" fill="#F3F7FC"/>
  <rect x="185" y="181" width="606" height="118" rx="10" fill="#061D42"/><text x="220" y="235" fill="#fff" font-family="Arial,Helvetica,sans-serif" font-size="43" font-weight="800" letter-spacing="5">COLLINS</text><text x="225" y="270" fill="#72B6FF" font-family="Arial,Helvetica,sans-serif" font-size="18" font-weight="800" letter-spacing="8">UPSTATE ELECTRIC</text><text x="190" y="333" fill="#061D42" font-family="Arial,Helvetica,sans-serif" font-size="25" font-weight="800">{{PHONE}}  ·  {{WEBSITE}}</text></g>
  <g fill="#53647C" font-family="Arial,Helvetica,sans-serif" font-size="20"><text x="96" y="714">01  PRIMARY SIDE PANEL LOCKUP</text><text x="622" y="714">02  CONTACT STRIP</text><text x="982" y="714">03  WHITE VEHICLE BASE</text></g>
</svg>
