<svg xmlns="http://www.w3.org/2000/svg" viewBox="0 0 1200 800" role="img" aria-labelledby="title"><title id="title">Collins Upstate Electric editable yard sign</title>
  <rect width="1200" height="800" fill="#F8FBFF"/><rect x="34" y="34" width="1132" height="732" rx="16" fill="#fff" stroke="#061D42" stroke-width="12"/><rect x="40" y="40" width="1120" height="198" rx="10" fill="#061D42"/>
  <g transform="translate(88 71)" fill="none" stroke="#fff" stroke-linejoin="round"><path d="M4 112 47 47l18 23 27-43 58 85H4Z" stroke-width="8"/><path d="m84 28-15 44h19l-12 34 34-48H90l13-30H84Z" fill="#45A0FF" stroke-width="2"/></g><text x="274" y="133" fill="#fff" font-family="Arial,Helvetica,sans-serif" font-size="62" font-weight="800" letter-spacing="7">COLLINS</text><text x="278" y="181" fill="#A8CDFF" font-family="Arial,Helvetica,sans-serif" font-size="23" font-weight="800" letter-spacing="11">UPSTATE ELECTRIC</text>
  <text x="600" y="342" fill="#061D42" font-family="Arial,Helvetica,sans-serif" font-size="37" font-weight="800" text-anchor="middle">RESIDENTIAL &amp; COMMERCIAL ELECTRICAL</text>
  <g fill="#061D42" font-family="Arial,Helvetica,sans-serif" font-weight="800" text-anchor="middle"><text x="260" y="440" font-size="24">LICENSED</text><text x="260" y="470" font-size="24">&amp; INSURED</text><text x="600" y="440" font-size="24">RELIABLE</text><text x="600" y="470" font-size="24">POWER</text><text x="940" y="440" font-size="24">QUALITY</text><text x="940" y="470" font-size="24">SERVICE</text></g>
  <rect x="40" y="558" width="1120" height="170" fill="#061D42"/><text x="600" y="644" fill="#fff" font-family="Arial,Helvetica,sans-serif" font-size="58" font-weight="800" text-anchor="middle">{{PHONE}}</text><text x="600" y="689" fill="#A8CDFF" font-family="Arial,Helvetica,sans-serif" font-size="24" font-weight="700" letter-spacing="2" text-anchor="middle">{{WEBSITE}}</text>
</svg>
