<svg xmlns="http://www.w3.org/2000/svg" viewBox="0 0 64 64" fill="none">
  <defs>
    <linearGradient id="bg" x1="8" y1="8" x2="56" y2="56" gradientUnits="userSpaceOnUse">
      <stop stop-color="#0f2a21"/>
      <stop offset="1" stop-color="#091611"/>
    </linearGradient>
    <linearGradient id="leaf" x1="10" y1="12" x2="54" y2="50" gradientUnits="userSpaceOnUse">
      <stop stop-color="#34d399"/>
      <stop offset="1" stop-color="#10b981"/>
    </linearGradient>
    <linearGradient id="leaf2" x1="36" y1="14" x2="56" y2="44" gradientUnits="userSpaceOnUse">
      <stop stop-color="#fbbf24"/>
      <stop offset="1" stop-color="#f59e0b"/>
    </linearGradient>
  </defs>
  <rect x="4" y="4" width="56" height="56" rx="16" fill="url(#bg)"/>
  <path d="M18 16l-8 13h5l-6 9h9l-2 3h12l-2-3h9l-6-9h5l-8-13h-8z" fill="url(#leaf)" opacity=".96"/>
  <path d="M35 12l-9 12h5l-7 10h10l-3 4h12l-3-4h10l-7-10h5l-9-12h-4z" fill="#ecfdf5" opacity=".85"/>
  <path d="M48 20l-6 9h4l-4 6h5l-2 3h8l-2-3h5l-4-6h4l-6-9h-2z" fill="url(#leaf2)" opacity=".88"/>
  <path d="M22 42h20" stroke="rgba(255,255,255,.08)" stroke-linecap="round"/>
</svg>
